<svg width="20" height="21" viewBox="0 0 20 21" fill="none" xmlns="http://www.w3.org/2000/svg">
<g clip-path="url(#clip0_207_838)">
<path d="M19.7044 0.894041C19.3255 0.515137 18.7093 0.515137 18.3304 0.894041L15.6655 3.55886C15.1534 3.09529 14.397 2.76219 13.7724 2.76219H6.22626C5.4282 2.76219 4.41224 3.30487 3.97088 3.96968L0.356721 9.39231C-0.0860272 10.0557 -0.0860272 11.1425 0.356721 11.8073L3.18115 16.0446L0.295652 18.9287C-0.0832513 19.3076 -0.0832513 19.9239 0.295652 20.3028C0.485798 20.4929 0.734237 20.5873 0.982675 20.5873C1.23111 20.5873 1.47955 20.4929 1.6697 20.3028L19.7044 2.26809C20.0833 1.88918 20.0833 1.27294 19.7044 0.894041ZM11.2339 7.9905C10.8591 7.81285 10.4414 7.71153 9.99864 7.71153C8.40391 7.71153 7.11036 9.00507 7.11036 10.5998C7.11036 11.0425 7.21168 11.4603 7.38934 11.8351L5.68219 13.5422C5.10898 12.7039 4.7731 11.6921 4.7731 10.6012C4.7731 7.71569 7.11175 5.37704 9.99725 5.37704C11.0882 5.37704 12.1013 5.71292 12.9383 6.28613L11.2339 7.9905ZM18.1541 7.15913C18.0084 6.93984 17.6988 6.90931 17.5129 7.09529L15.1062 9.50195C15.1811 9.85587 15.2228 10.2223 15.2228 10.5984C15.2228 13.4839 12.8841 15.8226 9.99864 15.8226C9.62251 15.8226 9.2561 15.7823 8.90218 15.706L6.88413 17.724C6.49274 18.1154 6.62598 18.4346 7.17837 18.4346H13.771C14.5691 18.4346 15.5836 17.892 16.0264 17.2271L19.6405 11.8059C20.0833 11.1425 20.0833 10.0557 19.6405 9.39092L18.1541 7.15913Z" fill="#DCDCDC"/>
</g>
<defs>
<clipPath id="clip0_207_838">
<rect width="20" height="20.0056" fill="white" transform="translate(0 0.595703)"/>
</clipPath>
</defs>
</svg>
