<svg width="20" height="21" viewBox="0 0 20 21" fill="none" xmlns="http://www.w3.org/2000/svg">
<path d="M19.6431 8.79474L16.0289 3.37351C15.5862 2.71008 14.5716 2.16602 13.7735 2.16602H6.2274C5.42934 2.16602 4.41338 2.70869 3.97202 3.37351L0.356475 8.79474C-0.086273 9.45817 -0.086273 10.5449 0.356475 11.2097L3.97063 16.631C4.41338 17.2944 5.42795 17.8385 6.22601 17.8385H13.7722C14.5702 17.8385 15.5862 17.2958 16.0275 16.631L19.6417 11.2097C20.0858 10.5449 20.0858 9.45956 19.6431 8.79474ZM9.99978 15.2264C7.11428 15.2264 4.77563 12.8877 4.77563 10.0022C4.77563 7.11674 7.11428 4.77809 9.99978 4.77809C12.8853 4.77809 15.2239 7.11674 15.2239 10.0022C15.2239 12.8877 12.8853 15.2264 9.99978 15.2264ZM9.99978 7.11397C8.40505 7.11397 7.11151 8.40751 7.11151 10.0022C7.11151 11.597 8.40505 12.8905 9.99978 12.8905C11.5945 12.8905 12.888 11.597 12.888 10.0022C12.888 8.40751 11.5945 7.11397 9.99978 7.11397Z" fill="#DCDCDC"/>
</svg>
